<svg xmlns="http://www.w3.org/2000/svg" width="434.698" height="116.201" viewBox="0 0 434.698 116.201"><g transform="translate(-747.658 -54.093)"><g transform="translate(747.658 54.093)"><rect width="116.148" height="116.148" fill="none"/><rect width="161.447" height="116.201" fill="none"/><g transform="translate(12.226 12.226)"><path d="M222.163,1311.85a23.151,23.151,0,0,0-5.012.493,2.1,2.1,0,0,0-1.746,1.975l-4.822,22.252a7.548,7.548,0,0,0-.152,1.215,1.734,1.734,0,0,0,1.9,1.823c1.291,0,1.823-.835,2.092-2.126l1.367-6.341a32.14,32.14,0,0,0,3.987.228c7.86,0,12.758-4.253,12.758-10.669C232.529,1315.077,228.617,1311.85,222.163,1311.85Zm-2.582,15.87a23.426,23.426,0,0,1-3.038-.152l2.544-11.809a22.565,22.565,0,0,1,3.19-.265c4.176,0,6.3,1.975,6.3,5.24C228.579,1324.912,225.542,1327.72,219.581,1327.72Z" transform="translate(-210.43 -1247.857)" fill="#fff"/><path d="M2343.316,1382.085c-.646,0-1.063.38-1.859,1.253-1.4,1.442-2.278,2.24-3.379,2.24-.988,0-1.519-.8-1.519-2.092a13.858,13.858,0,0,1,.342-2.543l1.405-6.607h4.215a1.939,1.939,0,0,0,2.126-2.126c0-.76-.494-1.33-1.633-1.33h-3.951l.683-3.075a7.956,7.956,0,0,0,.152-1.253,1.755,1.755,0,0,0-1.9-1.823c-1.253,0-1.822.835-2.088,2.127l-.872,4.024h-1.785a1.95,1.95,0,0,0-2.165,2.126c0,.759.532,1.329,1.671,1.329h1.557l-1.4,6.531a15.782,15.782,0,0,0-.342,3.114c0,3.075,1.594,5.316,5.012,5.316a7.779,7.779,0,0,0,5.05-2.165c1.291-1.139,2.24-2.544,2.24-3.455A1.573,1.573,0,0,0,2343.316,1382.085Z" transform="translate(-2207.878 -1297.664)" fill="#fff"/><path d="M893.114,1320.863a1.765,1.765,0,0,0-1.937-1.823c-1.253,0-1.823.835-2.092,2.126l-4.746,22.061a4.9,4.9,0,0,0-.189,1.215,1.753,1.753,0,0,0,1.9,1.823c1.291,0,1.859-.835,2.126-2.126l4.746-22.06A7.621,7.621,0,0,0,893.114,1320.863Z" transform="translate(-845.006 -1254.629)" fill="#fff"/><path d="M1081.521,1327.422c-6.075,0-10.214,6.037-10.214,11.771,0,.107,0,.214.007.319-.953,1.446-2.171,2.946-3.006,2.946-.607,0-.835-.57-.835-1.443a24.635,24.635,0,0,1,.646-4.4l3.151-14.583a7.547,7.547,0,0,0,.152-1.215,1.734,1.734,0,0,0-1.9-1.823c-1.291,0-1.823.835-2.092,2.126l-1.708,7.9a5.566,5.566,0,0,0-4.253-1.595c-4.034,0-8.092,3.106-9.674,7.869-1.743,4.5-3.3,7.167-4.526,7.167-.455,0-.721-.38-.721-1.025,0-1.9,1.063-6.531,1.519-8.773a8.839,8.839,0,0,0,.228-1.67c0-1.671-2.771-3.645-6.379-3.645a11.153,11.153,0,0,0-9.843,6.566c-2.814,4.971-5.4,8.544-6.673,8.544-.57,0-.759-.721-.912-1.405l-.951-5.233,5.81-4.746a2.8,2.8,0,0,0,1.215-1.937,1.614,1.614,0,0,0-1.709-1.709,3.358,3.358,0,0,0-2.05.988l-8.733,7.214,2.924-13.6a7.954,7.954,0,0,0,.19-1.215,1.765,1.765,0,0,0-1.937-1.823c-1.253,0-1.823.835-2.092,2.126l-4.746,22.061a4.9,4.9,0,0,0-.189,1.215,1.753,1.753,0,0,0,1.9,1.823c1.291,0,1.859-.836,2.127-2.127l.608-2.847,3.569-2.886.872,4.4c.342,1.746,1.253,3.455,3.607,3.455s4.183-2.139,6.03-5.029a5.7,5.7,0,0,0,5.7,5.029c3,0,5.05-1.784,6.379-4.177v.075c0,2.468,1.252,4.1,3.455,4.1,1.991,0,3.645-1.2,5.122-3.753a5.508,5.508,0,0,0,5.319,3.753c3.075,0,5.278-1.859,6.681-4.442V1342c0,2.731,1.367,4.215,3.607,4.215,1.975,0,3.66-1.148,5.094-3.018a6.246,6.246,0,0,0,5.69,3.018c6.075,0,10.214-6.037,10.214-11.808C1088.2,1330.346,1085.733,1327.422,1081.521,1327.422Zm-37.859,7.708c-1.1,4.746-3.455,7.442-6.113,7.442-1.785,0-2.772-1.366-2.772-3.417,0-4.025,2.924-8.354,6.835-8.354a5.281,5.281,0,0,1,2.885.835Zm21.149-2.012c-1.215,5.581-3.987,9.454-7.024,9.454-1.671,0-2.658-1.291-2.658-3.417,0-4.063,2.81-8.278,6.569-8.278a5.193,5.193,0,0,1,3.342,1.139Zm13.63,9.454c-2.2,0-3.113-1.594-3.113-3.607,0-3.683,2.543-7.9,5.733-7.9,2.2,0,3.114,1.594,3.114,3.607C1084.177,1338.4,1081.632,1342.572,1078.442,1342.572Z" transform="translate(-965.635 -1254.582)" fill="#fff"/><path d="M587.914,1464.12c-6.076,0-10.214,6.037-10.214,11.771,0,4.1,2.468,7.024,6.682,7.024,6.075,0,10.214-6.037,10.214-11.808C594.6,1467.043,592.126,1464.12,587.914,1464.12Zm-3.076,15.149c-2.2,0-3.114-1.594-3.114-3.607,0-3.683,2.544-7.9,5.734-7.9,2.2,0,3.113,1.594,3.113,3.607C590.572,1475.094,588.028,1479.27,584.838,1479.27Z" transform="translate(-556.361 -1391.28)" fill="#fff"/><ellipse cx="10.506" cy="6.113" rx="10.506" ry="6.113" transform="translate(57.991)" fill="#fff"/><ellipse cx="10.506" cy="6.113" rx="10.506" ry="6.113" transform="translate(57.991 46.044)" fill="#fff"/><ellipse cx="10.506" cy="6.113" rx="10.506" ry="6.113" transform="translate(38.013 23.665) rotate(-60)" fill="#fff"/><ellipse cx="10.506" cy="6.113" rx="10.506" ry="6.113" transform="translate(77.888 46.687) rotate(-60)" fill="#fff"/><ellipse cx="6.134" cy="10.542" rx="6.134" ry="10.542" transform="translate(38.231 34.772) rotate(-29.887)" fill="#fff"/><ellipse cx="6.113" cy="10.506" rx="6.113" ry="10.506" transform="translate(77.888 11.582) rotate(-30)" fill="#fff"/></g></g><g transform="translate(950 74)"><g transform="translate(0)"><path d="M30.488,0h171.38a30.488,30.488,0,0,1,30.488,30.488V45.9a30.488,30.488,0,0,1-30.487,30.487H30.488A30.488,30.488,0,0,1,0,45.9V30.488A30.488,30.488,0,0,1,30.488,0Z" fill="#fff"/><path d="M194.322,66.563H27.473A27.691,27.691,0,0,1,21.93,66,27.47,27.47,0,0,1,.558,44.627,27.677,27.677,0,0,1,0,39.09V27.472A27.69,27.69,0,0,1,.559,21.93,27.464,27.464,0,0,1,21.936.558,27.676,27.676,0,0,1,27.473,0H194.322a27.691,27.691,0,0,1,5.542.559,27.464,27.464,0,0,1,21.372,21.377,27.675,27.675,0,0,1,.558,5.536V39.09a27.616,27.616,0,0,1-.735,6.342,27.324,27.324,0,0,1-2.094,5.816A7.614,7.614,0,1,0,208.709,62.5a27.347,27.347,0,0,1-14.388,4.066Z" transform="translate(4.913 4.913)" fill="#493b29"/></g><g transform="translate(22.297 18.42)"><g transform="translate(0 0)"><path d="M294.127,191.431v6.109s17.538-.023,18.051,0,.987.652,1,1.626-.329,1.811-1,1.833-18.051,0-18.051,0-.121,3.859,0,8.806,2.853,7.466,6.545,7.429,10.62-.014,11.185,0a1.776,1.776,0,0,1,1.333,1.755c-.031.9-.677,1.837-1.215,1.837s-2.306-.01-11.3,0-10.7-6.121-10.7-11.02-.017-17.833,0-18.372.47-1.642,2.16-1.642A1.848,1.848,0,0,1,294.127,191.431Z" transform="translate(-288.175 -188.056)" fill="#ff1f66"/><path d="M12.194,34.6c-3.743,0-6.705-1.1-8.806-3.27a10.987,10.987,0,0,1-2.033-2.985,14.116,14.116,0,0,1-1-2.975,15.916,15.916,0,0,1-.329-2.285c-.039-.565-.03-.91-.03-.914C0,22,.048,4.3.025,3.171A2.543,2.543,0,0,1,.251,2.153,3.58,3.58,0,0,1,.978,1.076,3.626,3.626,0,0,1,3.646,0h.071A4.954,4.954,0,0,1,5.41.313a4.081,4.081,0,0,1,1.249.745,3.372,3.372,0,0,1,.776.978A2.26,2.26,0,0,1,7.7,3.047c0,1.243,0,4.531,0,4.67h.141C9.874,7.713,15.027,7.7,19,7.7c2.821,0,4.534,0,5.092.012a2.581,2.581,0,0,1,1.22.3,2.413,2.413,0,0,1,.833.77,3.463,3.463,0,0,1,.478,1.091,5.072,5.072,0,0,1,.152,1.267,4.9,4.9,0,0,1-.17,1.287,3.861,3.861,0,0,1-.506,1.136,2.663,2.663,0,0,1-.838.817,2.345,2.345,0,0,1-1.168.33c-.906.02-5.228.025-8.7.025-3.856,0-7.541-.005-7.7-.005v6.742a8.164,8.164,0,0,0,.16,1.5,7.72,7.72,0,0,0,.657,1.985,4.66,4.66,0,0,0,1.42,1.73,3.821,3.821,0,0,0,1.079.54,4.544,4.544,0,0,0,1.37.2h.055c1.233-.012,2.672-.019,4.4-.019,1.84,0,3.594.007,5,.012h.005c.871,0,1.556.006,2,.006a2.45,2.45,0,0,1,1.2.315,3.106,3.106,0,0,1,.933.813,3.945,3.945,0,0,1,.6,1.108,3.663,3.663,0,0,1,.215,1.2,3.551,3.551,0,0,1-.256,1.248,5,5,0,0,1-.673,1.206,3.909,3.909,0,0,1-.947.91,2.392,2.392,0,0,1-.532.265,1.69,1.69,0,0,1-.546.1h-.678C22.662,34.6,21.586,34.6,12.194,34.6Zm7.11-1.841c2.417,0,3.547,0,4.091,0h.4a.709.709,0,0,0,.412-.161,1.73,1.73,0,0,0,.385-.421,2.567,2.567,0,0,0,.29-.589,2.307,2.307,0,0,0,.127-.665,1.663,1.663,0,0,0-.143-.719,2.075,2.075,0,0,0-.392-.594,1.251,1.251,0,0,0-.8-.441c-.326-.008-2.911-.02-5.812-.02-1.541,0-3.723,0-5.373.02h-.081A6,6,0,0,1,7.856,27.3,6.667,6.667,0,0,1,6.5,24.977a10.524,10.524,0,0,1-.547-3.232c-.063-2.556-.058-4.813-.045-6.258.015-1.565.045-2.538.045-2.548.044,0,7.737.009,13.073.009,3.1,0,4.78,0,4.978-.009a.884.884,0,0,0,.755-.56A2.834,2.834,0,0,0,25,11.106a2.614,2.614,0,0,0-.089-.66,1.8,1.8,0,0,0-.223-.507,1.132,1.132,0,0,0-.317-.329A.726.726,0,0,0,24,9.482c-.151-.007-1.8-.01-4.907-.01-5.187,0-12.817.01-13.14.01h0V3.374a1.755,1.755,0,0,0-.365-.918,1.737,1.737,0,0,0-.608-.5,2.268,2.268,0,0,0-1.026-.221A2.832,2.832,0,0,0,2.9,1.912a1.84,1.84,0,0,0-.659.437,1.675,1.675,0,0,0-.346.539,1.484,1.484,0,0,0-.107.485c-.012.374-.008,6.616,0,12.123,0,2.433,0,4.73,0,6.249a12.344,12.344,0,0,0,1.975,7.346A7.981,7.981,0,0,0,5.149,30.57a8.438,8.438,0,0,0,1.868,1.162,10.8,10.8,0,0,0,2.42.761,15.916,15.916,0,0,0,3.037.273H12.5C15.149,32.761,17.44,32.761,19.3,32.761Z" transform="translate(0.002 0.002)" fill="#5cffd9"/><g transform="translate(31.013 7.905)"><path d="M25.136,27.086H12.459a11.632,11.632,0,0,1-3.267-.6A15.642,15.642,0,0,1,5.053,24.48,11.866,11.866,0,0,1,1.5,20.724,11.4,11.4,0,0,1,0,14.888V11.349A8.727,8.727,0,0,1,1,7.812,15.366,15.366,0,0,1,3.9,3.741,12.043,12.043,0,0,1,12.459,0H25.143a10.572,10.572,0,0,1,3.7.8,16.6,16.6,0,0,1,3.976,2.226A14.515,14.515,0,0,1,34.57,4.589,11.527,11.527,0,0,1,35.99,6.411a8.033,8.033,0,0,1,1.3,4.282V16.73a7.461,7.461,0,0,1-.9,3.275,13.037,13.037,0,0,1-2.516,3.377A13.883,13.883,0,0,1,32.1,24.846a13.111,13.111,0,0,1-2.071,1.176,11.813,11.813,0,0,1-4.889,1.064ZM12.415,8.022a4.076,4.076,0,0,0-1.661.349,4.3,4.3,0,0,0-1.233.83A3.057,3.057,0,0,0,8.49,11.013c0,.228,0,.594,0,1.03V15.7a3.178,3.178,0,0,0,.959,2.112,3.543,3.543,0,0,0,1.193.781,4.728,4.728,0,0,0,1.773.318H24.738a4.378,4.378,0,0,0,3.028-1.018,3.047,3.047,0,0,0,.74-1.031,2.89,2.89,0,0,0,.243-1.162c.04,0,.009-3.516,0-3.945V11.7a3.42,3.42,0,0,0-.22-1.138,4.32,4.32,0,0,0-.667-1.2,3.383,3.383,0,0,0-2.717-1.336Z" transform="translate(0.002)" fill="#4849fb"/><path d="M13.237,22.4c-1.343,0-2.407-.008-3.349-.026A9.75,9.75,0,0,1,6.1,21.425,11.312,11.312,0,0,1,2.955,19.2,10.711,10.711,0,0,1,.813,16.159a7.958,7.958,0,0,1-.775-3.406,3.765,3.765,0,0,0-.019-.531A25.211,25.211,0,0,1,.038,9.2,7.816,7.816,0,0,1,.826,6.174,11.4,11.4,0,0,1,2.881,3.188,9.706,9.706,0,0,1,9.89,0H22.161a12.746,12.746,0,0,1,4.046.653A11.434,11.434,0,0,1,29.56,2.412a8.757,8.757,0,0,1,2.3,2.567,6.354,6.354,0,0,1,.883,3.079c.04,2.3.07,2.957.094,3.485.021.455.037.813.052,2.074a7.5,7.5,0,0,1-2.426,5.219,12.177,12.177,0,0,1-3.739,2.54,11.46,11.46,0,0,1-4.56.992c-2,0-3.786.008-5.358.015h0C15.528,22.391,14.328,22.4,13.237,22.4ZM9.938,3.369a5.264,5.264,0,0,0-2.324.558A6.913,6.913,0,0,0,5.736,5.3,5.631,5.631,0,0,0,4,8.749c-.026,2.045-.035,3.012,0,4.519a4.351,4.351,0,0,0,.391,1.491,7.533,7.533,0,0,0,1.119,1.817A6.516,6.516,0,0,0,7.37,18.128a5.621,5.621,0,0,0,2.6.7c1.411.034,5.067.116,8.53.116,2.4,0,4.179-.038,5.3-.116a4.824,4.824,0,0,0,2.009-.6,5.786,5.786,0,0,0,1.547-1.251,6.191,6.191,0,0,0,1-1.549,4.019,4.019,0,0,0,.38-1.488c.041-1.47.116-4.207,0-5.366a5.1,5.1,0,0,0-2.026-3.911,6.407,6.407,0,0,0-3.437-1.3c-.606-.032-2.074-.048-4.364-.048-3.884,0-8.893.048-8.946.048H9.936Z" transform="translate(2.173 2.45)" fill="#fff"/></g><g transform="translate(73.686)"><path d="M294.127,191.431v6.109s17.538-.023,18.051,0,.987.652,1,1.626-.329,1.811-1,1.833-18.051,0-18.051,0-.121,3.859,0,8.806,2.853,7.466,6.545,7.429,10.62-.014,11.185,0a1.776,1.776,0,0,1,1.333,1.755c-.031.9-.677,1.837-1.215,1.837s-2.306-.01-11.3,0-10.7-6.121-10.7-11.02-.017-17.833,0-18.372.47-1.642,2.16-1.642A1.848,1.848,0,0,1,294.127,191.431Z" transform="translate(-288.175 -188.056)" fill="#4849fb"/><path d="M12.194,34.6c-3.743,0-6.705-1.1-8.806-3.27a10.987,10.987,0,0,1-2.033-2.985,14.116,14.116,0,0,1-1-2.975,15.916,15.916,0,0,1-.329-2.285c-.039-.565-.03-.91-.03-.914C0,22,.048,4.3.025,3.171A2.543,2.543,0,0,1,.251,2.153,3.58,3.58,0,0,1,.978,1.076,3.626,3.626,0,0,1,3.646,0h.071A4.954,4.954,0,0,1,5.41.313a4.081,4.081,0,0,1,1.249.745,3.372,3.372,0,0,1,.776.978A2.26,2.26,0,0,1,7.7,3.047c0,1.243,0,4.531,0,4.67h.141C9.874,7.713,15.027,7.7,19,7.7c2.821,0,4.534,0,5.092.012a2.581,2.581,0,0,1,1.22.3,2.413,2.413,0,0,1,.833.77,3.463,3.463,0,0,1,.478,1.091,5.072,5.072,0,0,1,.152,1.267,4.9,4.9,0,0,1-.17,1.287,3.861,3.861,0,0,1-.506,1.136,2.663,2.663,0,0,1-.838.817,2.345,2.345,0,0,1-1.168.33c-.906.02-5.228.025-8.7.025-3.856,0-7.541-.005-7.7-.005v6.742a8.164,8.164,0,0,0,.16,1.5,7.72,7.72,0,0,0,.657,1.985,4.66,4.66,0,0,0,1.42,1.73,3.821,3.821,0,0,0,1.079.54,4.544,4.544,0,0,0,1.37.2h.055c1.233-.012,2.672-.019,4.4-.019,1.84,0,3.594.007,5,.012h.005c.871,0,1.556.006,2,.006a2.45,2.45,0,0,1,1.2.315,3.106,3.106,0,0,1,.933.813,3.945,3.945,0,0,1,.6,1.108,3.663,3.663,0,0,1,.215,1.2,3.551,3.551,0,0,1-.256,1.248,5,5,0,0,1-.673,1.206,3.909,3.909,0,0,1-.947.91,2.392,2.392,0,0,1-.532.265,1.69,1.69,0,0,1-.546.1h-.678C22.662,34.6,21.586,34.6,12.194,34.6Zm7.11-1.841c2.417,0,3.547,0,4.091,0h.4a.709.709,0,0,0,.412-.161,1.73,1.73,0,0,0,.385-.421,2.567,2.567,0,0,0,.29-.589,2.307,2.307,0,0,0,.127-.665,1.663,1.663,0,0,0-.143-.719,2.075,2.075,0,0,0-.392-.594,1.251,1.251,0,0,0-.8-.441c-.326-.008-2.911-.02-5.812-.02-1.541,0-3.723,0-5.373.02h-.081A6,6,0,0,1,7.856,27.3,6.667,6.667,0,0,1,6.5,24.977a10.524,10.524,0,0,1-.547-3.232c-.063-2.556-.058-4.813-.045-6.258.015-1.565.045-2.538.045-2.548.044,0,7.737.009,13.073.009,3.1,0,4.78,0,4.978-.009a.884.884,0,0,0,.755-.56A2.834,2.834,0,0,0,25,11.106a2.614,2.614,0,0,0-.089-.66,1.8,1.8,0,0,0-.223-.507,1.132,1.132,0,0,0-.317-.329A.726.726,0,0,0,24,9.482c-.151-.007-1.8-.01-4.907-.01-5.187,0-12.817.01-13.14.01h0V3.374a1.755,1.755,0,0,0-.365-.918,1.737,1.737,0,0,0-.608-.5,2.268,2.268,0,0,0-1.026-.221A2.832,2.832,0,0,0,2.9,1.912a1.84,1.84,0,0,0-.659.437,1.675,1.675,0,0,0-.346.539,1.484,1.484,0,0,0-.107.485c-.012.374-.008,6.616,0,12.123,0,2.433,0,4.73,0,6.249a12.344,12.344,0,0,0,1.975,7.346A7.981,7.981,0,0,0,5.149,30.57a8.438,8.438,0,0,0,1.868,1.162,10.8,10.8,0,0,0,2.42.761,15.916,15.916,0,0,0,3.037.273H12.5C15.149,32.761,17.44,32.761,19.3,32.761Z" transform="translate(0.002 0.002)" fill="#5cffd9"/></g><g transform="translate(106.199 8.329)"><g transform="translate(0 18.421)"><path d="M17.263,8.21c-3.449,0-7.615,0-10.656,0H3.134A2.76,2.76,0,0,1,.667,6.962,4.787,4.787,0,0,1,0,4.285a5.9,5.9,0,0,1,.68-2.859A2.927,2.927,0,0,1,1.644.4,2.77,2.77,0,0,1,3.133,0c.08,0,8.04.006,13.846.006,3.412,0,5.424,0,5.983-.005h.015a2.386,2.386,0,0,1,2.087,1.336,5.069,5.069,0,0,1,.673,2.457,7.385,7.385,0,0,1-.47,2.762A2.4,2.4,0,0,1,22.961,8.2C22.238,8.208,20.322,8.21,17.263,8.21ZM3.112,2.292c-.218,0-.442.212-.614.581A3.179,3.179,0,0,0,2.226,4.13a2.375,2.375,0,0,0,.512,1.575.527.527,0,0,0,.364.182h.014c.226-.009,4.787-.01,7.485-.01,5.6,0,11.933.005,12.11.01h.006a.812.812,0,0,0,.571-.435,2.386,2.386,0,0,0,.34-1.322,2.432,2.432,0,0,0-.369-1.36.974.974,0,0,0-.7-.477c-.132,0-1.894-.006-5.238-.006-5.658,0-14.121.006-14.2.006Z" transform="translate(0.009 0.001)" fill="#4849fb"/><path d="M545.053,393.091c-.469,0-.878.935-.889,1.837s.432,1.774.889,1.757,19.286-.008,19.595,0,.918-.566.918-1.757-.626-1.823-1.073-1.837S545.053,393.091,545.053,393.091Z" transform="translate(-541.929 -390.797)" fill="#fff"/></g><g transform="translate(0 0)"><path d="M17.263,8.21c-3.449,0-7.615,0-10.656,0H3.134A2.76,2.76,0,0,1,.667,6.962,4.787,4.787,0,0,1,0,4.285a5.9,5.9,0,0,1,.68-2.859A2.927,2.927,0,0,1,1.644.4,2.77,2.77,0,0,1,3.133,0c.08,0,8.04.006,13.846.006,3.412,0,5.424,0,5.983-.005h.015a2.386,2.386,0,0,1,2.087,1.336,5.069,5.069,0,0,1,.673,2.457,7.385,7.385,0,0,1-.47,2.762A2.4,2.4,0,0,1,22.961,8.2C22.238,8.208,20.322,8.21,17.263,8.21ZM3.112,2.292c-.218,0-.442.212-.614.581A3.179,3.179,0,0,0,2.226,4.13a2.375,2.375,0,0,0,.512,1.575.527.527,0,0,0,.364.182h.014c.226-.009,4.787-.01,7.485-.01,5.6,0,11.933.005,12.11.01h.006a.812.812,0,0,0,.571-.435,2.386,2.386,0,0,0,.34-1.322,2.432,2.432,0,0,0-.369-1.36.974.974,0,0,0-.7-.477c-.132,0-1.894-.006-5.238-.006-5.658,0-14.121.006-14.2.006Z" transform="translate(0.009 0.001)" fill="#fd1d66"/><path d="M545.053,393.091c-.469,0-.878.935-.889,1.837s.432,1.774.889,1.757,19.286-.008,19.595,0,.918-.566.918-1.757-.626-1.823-1.073-1.837S545.053,393.091,545.053,393.091Z" transform="translate(-541.929 -390.797)" fill="#fff"/></g></g><g transform="translate(136.221 7.44)"><path d="M670.625,393.367c-.013-.046.013-1.206,0-1.975s-1.151-1.309-1.887-1.317-1.985.437-1.994,1.317,0,18.062,0,19.541a1.981,1.981,0,0,0,1.994,1.957,2.068,2.068,0,0,0,2.324-1.957c-.013-1.585.134-9.388.142-12.435s5.322-4.879,8.62-5.129,8.365.673,8.61,5.129c.089,2.7,0,11.156,0,12.584s1.767,1.767,2.149,1.808,2.387-.364,2.426-1.957,0-10.328,0-12.435c.087-2.66,4.91-4.737,9.124-5.129s8.489,1.819,8.5,5.129c.013,2.029-.017,11.012,0,12.584s1.814,1.792,2.2,1.808a1.887,1.887,0,0,0,2.075-1.957c-.028-1.849,0-10.84,0-12.435-.433-5.962-7.24-8.7-11.435-8.7a16.173,16.173,0,0,0-12.163,4.914c-2.792-4.39-8.218-5.087-11.233-4.914a15.558,15.558,0,0,0-9.452,3.568Z" transform="translate(-664.42 -387.412)" fill="#493b29"/><path d="M48.09,27.694h0a4.277,4.277,0,0,1-1.63-.324,4.473,4.473,0,0,1-1.324-.841,4.124,4.124,0,0,1-.9-1.162,2.978,2.978,0,0,1-.337-1.291c-.01-.833,0-3.212,0-5.732.006-2.9.013-5.908,0-7.192a2.085,2.085,0,0,0-.587-1.431,3.99,3.99,0,0,0-1.441-.929,10.739,10.739,0,0,0-3.763-.65c-.145,0-.29,0-.428.009a14.29,14.29,0,0,0-4.236.976,7.887,7.887,0,0,0-1.784.939,1.59,1.59,0,0,0-.766,1.086c-.037.732-.018,3.427,0,6.274.019,2.872.04,5.842,0,6.648a3.617,3.617,0,0,1-1.306,2.386,4.988,4.988,0,0,1-3.233,1.227h-.086a5.1,5.1,0,0,1-3.247-1.1,3.892,3.892,0,0,1-.964-1.155,3.075,3.075,0,0,1-.38-1.354c-.072-1.959-.072-11.489,0-13.244a1.7,1.7,0,0,0-.541-1.256,4.651,4.651,0,0,0-1.87-1.087,8.2,8.2,0,0,0-2.588-.412,7.9,7.9,0,0,0-1.1.076,16.005,16.005,0,0,0-4.381,1.214,5.275,5.275,0,0,0-1.583,1.09,2.109,2.109,0,0,0-.63,1.429c-.01.929,0,3.091.005,5.377v0c.01,2.993.021,6.088-.005,6.811a2.625,2.625,0,0,1-.343,1.1,4.838,4.838,0,0,1-.907,1.184A4.894,4.894,0,0,1,6.35,27.3a4.375,4.375,0,0,1-1.8.388H4.433A6.185,6.185,0,0,1,2.6,27.379a4.361,4.361,0,0,1-1.4-.767,3.357,3.357,0,0,1-.89-1.132A3.229,3.229,0,0,1,0,24.075V4.02a4.045,4.045,0,0,1,.656-1.8A3.85,3.85,0,0,1,2.041.96,5.622,5.622,0,0,1,4.631.348a4.174,4.174,0,0,1,2.049.6A3.024,3.024,0,0,1,7.864,2.094,22.916,22.916,0,0,1,12.44.465,18.512,18.512,0,0,1,16.653,0c.2,0,.407,0,.611.008a16.316,16.316,0,0,1,5.129,1.058,13.791,13.791,0,0,1,4.771,2.89c.281-.191.554-.393.842-.606a13.39,13.39,0,0,1,3.765-2.119A23.423,23.423,0,0,1,39.5.183c.214,0,.435,0,.654,0a14.108,14.108,0,0,1,5.5,1.3,12.461,12.461,0,0,1,3.959,2.946,12.684,12.684,0,0,1,2.392,3.9,11.648,11.648,0,0,1,.8,4.155c0,2.414.007,4.549.014,6.433v0c.008,2.265.015,4.056,0,5.152a3.24,3.24,0,0,1-1.369,2.507A5.648,5.648,0,0,1,48.3,27.691ZM4.3,2.663a2.782,2.782,0,0,0-1.261.332,1.2,1.2,0,0,0-.714.985c-.009.893,0,18,0,19.541a1.935,1.935,0,0,0,1.994,1.957c.049,0,.1.008.159.008a2.454,2.454,0,0,0,1.66-.66,1.76,1.76,0,0,0,.5-1.3c-.008-.8.027-3.224.064-5.786v-.006c.036-2.529.074-5.144.078-6.644a3.042,3.042,0,0,1,.885-2.053A7.444,7.444,0,0,1,9.857,7.469,15.905,15.905,0,0,1,15.4,5.955c.326-.024.661-.037,1-.037a10.961,10.961,0,0,1,4.938,1.073,5.228,5.228,0,0,1,1.849,1.587,4.747,4.747,0,0,1,.828,2.506c.066,1.982.032,7.115.012,10.182-.008,1.129-.013,2.02-.012,2.4a1.459,1.459,0,0,0,.284.879,1.969,1.969,0,0,0,.649.545,3.549,3.549,0,0,0,1.216.383h.058a3.177,3.177,0,0,0,1.355-.407,1.826,1.826,0,0,0,1.011-1.551c.028-1.17.015-6.253.006-9.616v-.008c0-1.209-.006-2.254-.006-2.812a2.915,2.915,0,0,1,.871-1.869A7.726,7.726,0,0,1,31.6,7.668a15.568,15.568,0,0,1,2.918-1.121,18.479,18.479,0,0,1,3.191-.593c.321-.03.648-.045.973-.045a10.491,10.491,0,0,1,2.809.379A8.594,8.594,0,0,1,43.9,7.35a5.6,5.6,0,0,1,1.679,1.635,3.859,3.859,0,0,1,.639,2.1c.006.978,0,3.613,0,6.161,0,2.756-.008,5.607,0,6.422a1.593,1.593,0,0,0,.3.944,1.837,1.837,0,0,0,.665.544,3.3,3.3,0,0,0,1.237.32h.058A2.278,2.278,0,0,0,50,24.894a1.845,1.845,0,0,0,.484-1.38c-.021-1.4-.01-6.909,0-10.2v-.009c0-1.03,0-1.844,0-2.227a7.649,7.649,0,0,0-1.38-3.875A9.991,9.991,0,0,0,46.181,4.5a14.22,14.22,0,0,0-3.633-1.6,13.078,13.078,0,0,0-3.5-.523,17.721,17.721,0,0,0-6.2,1.017,15.348,15.348,0,0,0-3.017,1.51A18.176,18.176,0,0,0,26.888,7.3,10.032,10.032,0,0,0,21.9,3.328a14.116,14.116,0,0,0-2.829-.758A16.06,16.06,0,0,0,16.5,2.362c-.286,0-.57.008-.843.024a17.828,17.828,0,0,0-4.734.891A14.358,14.358,0,0,0,6.205,5.955c-.006-.021,0-.272,0-.62,0-.4.008-.939,0-1.356a1.2,1.2,0,0,0-.672-.943,2.532,2.532,0,0,0-1.214-.373Z" transform="translate(0 0)" fill="#62ffd8"/></g></g><path d="M4.952,0A4.953,4.953,0,1,1,0,4.952,4.953,4.953,0,0,1,4.952,0Z" transform="translate(191.392 38.318)" fill="#ff1f66"/></g></g></g></svg>